# Blender v3.6.5 OBJ File: 'Props.blend'
# www.blender.org
mtllib Book.mtl
o Cylinder.002
v -0.042809 0.008281 0.150028
v -0.040325 0.016722 0.150056
v -0.040325 0.016722 0.150056
v -0.042809 0.008281 0.150028
v -0.016703 0.041076 0.150137
v -0.008515 0.043637 0.150146
v -0.008515 0.043637 0.150146
v -0.016703 0.041076 0.150137
v 0.156352 -0.045498 0.149850
v 0.000000 -0.045498 0.149850
v 0.000000 -0.045498 0.149850
v 0.156352 -0.045498 0.149850
v -0.016703 -0.042073 0.149861
v -0.024249 -0.037914 0.149875
v -0.024249 -0.037914 0.149875
v -0.016703 -0.042073 0.149861
v -0.042809 -0.009277 0.149970
v -0.043648 -0.000498 0.149999
v -0.043648 -0.000498 0.149999
v -0.042809 -0.009277 0.149970
v -0.030863 0.031321 0.150105
v -0.024249 0.036918 0.150123
v -0.024249 0.036918 0.150123
v -0.030863 0.031321 0.150105
v -0.008515 -0.044633 0.149853
v -0.008515 -0.044633 0.149853
v -0.036292 -0.025499 0.149916
v -0.040325 -0.017719 0.149942
v -0.040325 -0.017719 0.149942
v -0.036292 -0.025499 0.149916
v -0.036292 0.024502 0.150082
v -0.036292 0.024502 0.150082
v -0.039972 -0.000441 0.145295
v -0.039160 0.007318 0.145323
v -0.030863 -0.031321 -0.150105
v -0.036292 -0.024502 -0.150082
v -0.032847 -0.021655 -0.145376
v -0.027589 -0.027681 -0.145398
v -0.024249 0.037914 -0.149875
v -0.016703 0.042073 -0.149861
v -0.013873 0.037182 -0.145161
v -0.021182 0.033507 -0.145175
v 0.000000 -0.044501 -0.150149
v 0.156352 -0.044501 -0.150149
v 0.000000 0.045498 -0.149850
v 0.000000 0.044501 0.150149
v 0.156352 0.044501 0.150149
v 0.156352 0.045498 -0.149850
v -0.008515 0.044633 -0.149853
v -0.030863 0.032318 -0.149893
v -0.036292 0.025499 -0.149916
v -0.040325 0.017719 -0.149942
v -0.042809 0.009277 -0.149970
v -0.043648 0.000498 -0.149999
v -0.042809 -0.008281 -0.150028
v -0.040325 -0.016722 -0.150056
v -0.030863 -0.032318 0.149893
v -0.024249 -0.036918 -0.150123
v -0.016703 -0.041076 -0.150137
v -0.008515 -0.043637 -0.150146
v -0.030863 -0.032318 0.149893
v 0.156352 0.044501 0.150149
v 0.000000 0.044501 0.150149
v 0.153756 0.040210 -0.145150
v 0.153756 0.039329 0.145440
v 0.153756 -0.040210 0.145150
v 0.153756 -0.039329 -0.145440
v 0.002307 -0.039329 -0.145440
v -0.005941 -0.038565 -0.145437
v -0.013873 -0.036302 -0.145429
v -0.021182 -0.032627 -0.145416
v -0.036754 -0.014779 -0.145351
v -0.039160 -0.007318 -0.145323
v -0.039972 0.000441 -0.145295
v -0.039160 0.008199 -0.145267
v -0.036754 0.015659 -0.145240
v -0.032847 0.022535 -0.145215
v -0.027589 0.028561 -0.145193
v -0.005941 0.039446 -0.145153
v 0.002307 0.040210 -0.145150
v 0.002307 0.039329 0.145440
v -0.005942 0.038565 0.145437
v -0.013873 0.036302 0.145429
v -0.021182 0.032627 0.145416
v -0.027589 0.027681 0.145398
v -0.032847 0.021655 0.145376
v -0.036754 0.014779 0.145351
v -0.039160 -0.008199 0.145267
v -0.036754 -0.015659 0.145240
v -0.032847 -0.022535 0.145215
v -0.027589 -0.028561 0.145193
v -0.021182 -0.033507 0.145175
v -0.013873 -0.037182 0.145161
v -0.005942 -0.039446 0.145153
v 0.002307 -0.040210 0.145150
vt 0.223138 0.562159
vt 0.223138 0.562159
vt 0.223138 0.562159
vt 0.223138 0.562159
vt 0.223138 0.562159
vt 0.223138 0.562159
vt 0.223138 0.562159
vt 0.223138 0.562159
vt 0.223138 0.562159
vt 0.223138 0.562159
vt 0.223138 0.562159
vt 0.223138 0.562159
vt 0.223138 0.562159
vt 0.223138 0.562159
vt 0.223138 0.562159
vt 0.223138 0.562159
vt 0.223138 0.562159
vt 0.223138 0.562159
vt 0.223138 0.562159
vt 0.223138 0.562159
vt 0.223138 0.562159
vt 0.223138 0.562159
vt 0.223138 0.562159
vt 0.223138 0.562159
vt 0.223138 0.562159
vt 0.190012 0.602261
vt 0.181494 0.588130
vt 0.190012 0.586358
vt 0.132955 0.911135
vt 0.138683 0.895369
vt 0.145308 0.901301
vt 0.019888 0.889319
vt 0.021182 0.870523
vt 0.027840 0.883763
vt 0.282544 0.549655
vt 0.006149 0.006408
vt 0.282138 0.006202
vt 0.439248 0.006355
vt 0.715642 0.549602
vt 0.439653 0.549808
vt 0.223138 0.562159
vt 0.223138 0.562159
vt 0.423865 0.006367
vt 0.424271 0.549820
vt 0.408370 0.006379
vt 0.408775 0.549831
vt 0.393357 0.006391
vt 0.379810 0.549851
vt 0.379404 0.006400
vt 0.367045 0.006410
vt 0.993851 0.549601
vt 0.979757 0.006150
vt 0.993851 0.006150
vt 0.979757 0.549601
vt 0.964466 0.006150
vt 0.948561 0.549601
vt 0.948563 0.006149
vt 0.932658 0.549601
vt 0.932660 0.006149
vt 0.917367 0.006149
vt 0.917367 0.549600
vt 0.903273 0.006149
vt 0.354747 0.549600
vt 0.341982 0.006159
vt 0.354341 0.006149
vt 0.328434 0.549619
vt 0.328029 0.006168
vt 0.313016 0.006180
vt 0.223138 0.562159
vt 0.313422 0.549631
vt 0.297520 0.006190
vt 0.297926 0.549644
vt 0.223138 0.562159
vt 0.223138 0.562159
vt 0.223138 0.562159
vt 0.223138 0.562159
vt 0.223138 0.562159
vt 0.223138 0.562159
vt 0.223138 0.562159
vt 0.223138 0.562159
vt 0.223138 0.562159
vt 0.737492 0.541057
vt 0.881424 0.014695
vt 0.881578 0.541103
vt 0.017081 0.856154
vt 0.015698 0.841213
vt 0.875942 0.609819
vt 0.880043 0.624186
vt 0.881426 0.639129
vt 0.202310 0.593356
vt 0.210836 0.579377
vt 0.210832 0.593431
vt 0.751816 0.579041
vt 0.749481 0.596579
vt 0.741677 0.591022
vt 0.867099 0.579041
vt 0.869285 0.596579
vt 0.860325 0.584972
vt 0.030025 0.901301
vt 0.036799 0.895369
vt 0.147643 0.883763
vt 0.155447 0.889319
vt 0.181486 0.616239
vt 0.181490 0.602185
vt 0.210828 0.607487
vt 0.202311 0.609259
vt 0.764169 0.569206
vt 0.758441 0.584972
vt 0.877236 0.591022
vt 0.042378 0.911135
vt 0.047716 0.904894
vt 0.154300 0.870523
vt 0.162979 0.875650
vt 0.729506 0.619525
vt 0.737340 0.639129
vt 0.727940 0.634950
vt 0.190012 0.618164
vt 0.181482 0.629754
vt 0.007716 0.860817
vt 0.210822 0.621002
vt 0.202311 0.624550
vt 0.890975 0.634950
vt 0.881426 0.913480
vt 0.778262 0.561901
vt 0.769358 0.575447
vt 0.884771 0.604692
vt 0.169184 0.845392
vt 0.159784 0.566862
vt 0.169184 0.562159
vt 0.056471 0.918441
vt 0.060172 0.911972
vt 0.158399 0.856154
vt 0.167619 0.860817
vt 0.734145 0.604692
vt 0.738725 0.624186
vt 0.840653 0.561901
vt 0.849408 0.575447
vt 0.836952 0.568370
vt 0.006149 0.845392
vt 0.015698 0.566862
vt 0.012354 0.875650
vt 0.118862 0.918441
vt 0.127766 0.904894
vt 0.737340 0.913480
vt 0.727940 0.918182
vt 0.181500 0.574615
vt 0.190012 0.571067
vt 0.889408 0.619525
vt 0.727940 0.006149
vt 0.727940 0.549602
vt 0.202310 0.577452
vt 0.210840 0.565862
vt 0.159784 0.841213
vt 0.742824 0.609819
vt 0.854747 0.569206
vt 0.890975 0.549602
vt 0.890975 0.006149
vt 0.006555 0.549861
vt 0.715236 0.006149
vt 0.393762 0.549842
vt 0.367451 0.549861
vt 0.964464 0.549601
vt 0.903273 0.549601
vt 0.342388 0.549610
vt 0.223138 0.562159
vt 0.737337 0.014648
vt 0.087740 0.917801
vt 0.115311 0.911972
vt 0.101796 0.916330
vt 0.073687 0.916330
vt 0.809384 0.562540
vt 0.781813 0.568370
vt 0.795328 0.564011
vt 0.823438 0.564011
vt 0.190012 0.633457
vt 0.890975 0.918182
vt 0.181504 0.562159
vt 0.006149 0.562160
vt 0.210818 0.633457
vt 0.202310 0.562159
vn -0.1525 0.0236 0.9880
vn 0.0000 0.0000 1.0000
vn -0.0850 0.1978 0.9765
vn 0.3051 -0.1391 0.9421
vn -0.0857 -0.2020 0.9756
vn -0.1531 -0.0259 0.9879
vn -0.1461 0.1326 0.9803
vn -0.0071 -0.2030 0.9791
vn -0.1582 -0.0954 0.9828
vn -0.1572 0.0547 0.9860
vn -0.1498 -0.0011 0.9887
vn 0.4468 -0.0950 0.8896
vn -0.3631 -0.2132 -0.9070
vn 0.2762 0.2875 -0.9171
vn -0.3265 -0.2964 -0.8975
vn -0.2668 0.3781 -0.8865
vn 0.1335 -0.3361 -0.9323
vn 0.2036 -0.3124 -0.9279
vn -0.0151 -0.4318 -0.9018
vn -0.0069 0.1984 0.9801
vn 0.6342 0.2891 -0.7171
vn -0.0153 0.4401 -0.8978
vn -0.1582 -0.0574 0.9857
vn -0.1570 0.0922 0.9833
vn -0.0398 0.2107 0.9767
vn -0.0866 0.4627 -0.8823
vn -0.1841 0.4339 -0.8819
vn -0.1218 0.1700 0.9779
vn -0.3279 0.3035 -0.8946
vn -0.3646 0.2199 -0.9048
vn -0.3791 0.1375 -0.9151
vn -0.3768 0.0027 -0.9263
vn -0.3786 -0.0586 -0.9237
vn -0.3777 -0.1314 -0.9165
vn -0.1472 -0.1363 0.9797
vn -0.2657 -0.3709 -0.8898
vn -0.1227 -0.1739 0.9771
vn -0.0403 -0.2151 0.9758
vn -0.1833 -0.4264 -0.8858
vn -0.0860 -0.4550 -0.8863
vn 0.6896 -0.4352 -0.5788
vn 0.6896 0.4352 0.5788
vn 0.6880 0.4435 -0.5744
vn 0.0646 -0.3558 -0.9323
vn 0.0144 -0.3592 -0.9332
vn 0.1335 0.3361 0.9323
vn 0.0646 0.3559 0.9323
vn 0.0144 0.3592 0.9332
vn 0.4462 -0.0881 -0.8906
vn 0.4612 0.0034 -0.8873
vn 0.2045 -0.3208 0.9248
vn 0.2036 0.3124 0.9279
vn 0.2750 0.2794 0.9200
vn 0.2750 -0.2794 -0.9200
vn 0.2045 0.3208 -0.9248
vn 0.4462 0.0881 0.8906
vn 0.4612 -0.0034 0.8873
vn 0.4468 0.0950 -0.8896
vn 0.2762 -0.2875 0.9171
vn 0.3445 -0.2324 -0.9096
vn 0.1342 0.3448 -0.9290
vn 0.0144 -0.3682 0.9296
vn 0.4048 0.1683 0.8988
vn 0.4059 0.1756 -0.8969
vn 0.3458 -0.2401 0.9071
vn 0.6348 -0.2821 -0.7194
vn 0.4048 -0.1683 -0.8988
vn 0.0649 0.3644 -0.9290
vn 0.0649 -0.3644 0.9290
vn 0.3445 0.2324 0.9096
vn 0.3458 0.2401 -0.9071
vn 0.6880 -0.4435 0.5744
vn 0.3037 0.1350 0.9432
vn 0.4059 -0.1756 0.8969
vn -0.3794 0.0641 -0.9230
vn 0.0144 0.3682 -0.9296
vn 0.1342 -0.3448 0.9290
usemtl None
s 1
f 1/1/1 3/2/2 4/3/2
f 5/4/3 7/5/2 8/6/2
f 9/7/4 11/8/2 12/9/2
f 13/10/5 15/11/2 16/12/2
f 17/13/6 19/14/2 20/15/2
f 21/16/7 23/17/2 24/18/2
f 10/19/8 26/20/2 11/8/2
f 27/21/9 29/22/2 30/23/2
f 2/24/10 32/25/2 3/2/2
f 18/26/11 34/27/12 1/28/1
f 36/29/13 38/30/14 35/31/15
f 39/32/16 41/33/17 42/34/18
f 43/35/19 9/36/4 10/37/8
f 46/38/20 48/39/21 45/40/22
f 28/41/23 20/15/2 29/22/2
f 31/42/24 24/18/2 32/25/2
f 45/40/22 6/43/25 46/38/20
f 49/44/26 5/45/3 6/43/25
f 40/46/27 22/47/28 5/45/3
f 22/47/28 50/48/29 21/49/7
f 50/48/29 31/50/24 21/49/7
f 51/51/30 2/52/10 31/53/24
f 52/54/31 1/55/1 2/52/10
f 1/55/1 54/56/32 18/57/11
f 18/57/11 55/58/33 17/59/6
f 55/58/33 28/60/23 17/59/6
f 56/61/34 27/62/9 28/60/23
f 36/63/13 57/64/35 27/65/9
f 57/64/35 58/66/36 14/67/37
f 58/66/36 13/68/5 14/67/37
f 25/69/38 16/12/2 26/20/2
f 59/70/39 25/71/38 13/68/5
f 60/72/40 10/37/8 25/71/38
f 57/73/35 30/23/2 61/74/2
f 46/75/20 62/76/2 63/77/2
f 22/78/28 8/6/2 23/17/2
f 18/79/11 4/3/2 19/14/2
f 14/80/37 61/74/2 15/11/2
f 6/81/25 63/77/2 7/5/2
f 64/82/41 66/83/42 67/84/43
f 41/33/17 79/85/44 80/86/45
f 93/87/46 94/88/47 95/89/48
f 54/90/32 75/91/49 74/92/50
f 21/93/7 84/94/51 22/95/28
f 57/96/35 92/97/52 91/98/53
f 50/99/29 42/34/18 78/100/54
f 35/31/15 71/101/55 58/102/36
f 18/26/11 88/103/56 33/104/57
f 54/90/32 73/105/58 55/106/33
f 31/107/24 85/108/59 21/93/7
f 14/109/37 93/87/46 92/97/52
f 51/110/30 78/100/54 77/111/60
f 58/102/36 70/112/61 59/113/39
f 6/114/25 81/115/62 46/116/20
f 17/117/6 89/118/63 88/103/56
f 49/119/26 80/86/45 79/85/44
f 55/106/33 72/120/64 56/121/34
f 10/122/8 66/123/42 95/89/48
f 2/124/10 86/125/65 31/107/24
f 13/126/5 94/88/47 93/87/46
f 43/127/19 67/128/43 44/129/66
f 52/130/31 77/111/60 76/131/67
f 59/113/39 69/132/68 60/133/40
f 5/134/3 82/135/69 6/114/25
f 28/136/23 90/137/70 89/138/63
f 45/139/22 64/140/41 80/86/45
f 40/141/27 79/85/44 41/33/17
f 56/142/34 37/143/71 36/29/13
f 46/116/20 65/144/72 47/145/73
f 1/28/1 87/146/74 2/147/10
f 25/148/38 95/89/48 94/88/47
f 47/149/73 64/82/41 48/150/21
f 53/151/75 76/152/67 75/91/49
f 60/133/40 68/153/76 43/127/19
f 22/95/28 83/154/77 5/134/3
f 27/155/9 91/98/53 90/137/70
f 44/156/66 66/83/42 9/157/4
f 1/1/1 2/24/10 3/2/2
f 5/4/3 6/81/25 7/5/2
f 9/7/4 10/19/8 11/8/2
f 13/10/5 14/80/37 15/11/2
f 17/13/6 18/79/11 19/14/2
f 21/16/7 22/78/28 23/17/2
f 10/19/8 25/69/38 26/20/2
f 27/21/9 28/41/23 29/22/2
f 2/24/10 31/42/24 32/25/2
f 18/26/11 33/104/57 34/27/12
f 36/29/13 37/143/71 38/30/14
f 39/32/16 40/141/27 41/33/17
f 43/35/19 44/158/66 9/36/4
f 46/38/20 47/159/73 48/39/21
f 28/41/23 17/13/6 20/15/2
f 31/42/24 21/16/7 24/18/2
f 45/40/22 49/44/26 6/43/25
f 49/44/26 40/46/27 5/45/3
f 40/46/27 39/160/16 22/47/28
f 22/47/28 39/160/16 50/48/29
f 50/48/29 51/161/30 31/50/24
f 51/51/30 52/54/31 2/52/10
f 52/54/31 53/162/75 1/55/1
f 1/55/1 53/162/75 54/56/32
f 18/57/11 54/56/32 55/58/33
f 55/58/33 56/61/34 28/60/23
f 56/61/34 36/163/13 27/62/9
f 36/63/13 35/164/15 57/64/35
f 57/64/35 35/164/15 58/66/36
f 58/66/36 59/70/39 13/68/5
f 25/69/38 13/10/5 16/12/2
f 59/70/39 60/72/40 25/71/38
f 60/72/40 43/35/19 10/37/8
f 57/73/35 27/21/9 30/23/2
f 46/75/20 47/165/73 62/76/2
f 22/78/28 5/4/3 8/6/2
f 18/79/11 1/1/1 4/3/2
f 14/80/37 57/73/35 61/74/2
f 6/81/25 46/75/20 63/77/2
f 64/82/41 65/166/72 66/83/42
f 80/86/45 64/140/41 67/128/43
f 67/128/43 68/153/76 80/86/45
f 68/153/76 69/132/68 70/112/61
f 68/153/76 74/167/50 80/86/45
f 70/112/61 71/101/55 68/153/76
f 71/101/55 38/30/14 68/153/76
f 38/30/14 37/143/71 68/153/76
f 37/143/71 72/168/64 68/153/76
f 72/168/64 73/169/58 68/153/76
f 73/169/58 74/167/50 68/153/76
f 74/167/50 75/170/49 80/86/45
f 75/170/49 76/131/67 80/86/45
f 76/131/67 77/111/60 80/86/45
f 77/111/60 78/100/54 80/86/45
f 78/100/54 42/34/18 80/86/45
f 42/34/18 41/33/17 80/86/45
f 95/89/48 66/123/42 65/144/72
f 65/144/72 81/115/62 95/89/48
f 81/115/62 82/135/69 83/154/77
f 81/115/62 33/171/57 95/89/48
f 83/154/77 84/94/51 81/115/62
f 84/94/51 85/108/59 81/115/62
f 85/108/59 86/125/65 81/115/62
f 86/125/65 87/172/74 81/115/62
f 87/172/74 34/173/12 81/115/62
f 34/173/12 33/171/57 81/115/62
f 33/171/57 88/174/56 95/89/48
f 88/174/56 89/138/63 95/89/48
f 89/138/63 90/137/70 95/89/48
f 90/137/70 91/98/53 95/89/48
f 91/98/53 92/97/52 95/89/48
f 92/97/52 93/87/46 95/89/48
f 54/90/32 53/151/75 75/91/49
f 21/93/7 85/108/59 84/94/51
f 57/96/35 14/109/37 92/97/52
f 50/99/29 39/32/16 42/34/18
f 35/31/15 38/30/14 71/101/55
f 18/26/11 17/117/6 88/103/56
f 54/90/32 74/92/50 73/105/58
f 31/107/24 86/125/65 85/108/59
f 14/109/37 13/126/5 93/87/46
f 51/110/30 50/99/29 78/100/54
f 58/102/36 71/101/55 70/112/61
f 6/114/25 82/135/69 81/115/62
f 17/117/6 28/175/23 89/118/63
f 49/119/26 45/139/22 80/86/45
f 55/106/33 73/105/58 72/120/64
f 10/122/8 9/176/4 66/123/42
f 2/147/10 87/146/74 86/177/65
f 13/126/5 25/148/38 94/88/47
f 43/127/19 68/153/76 67/128/43
f 52/130/31 51/110/30 77/111/60
f 59/113/39 70/112/61 69/132/68
f 5/134/3 83/154/77 82/135/69
f 28/136/23 27/155/9 90/137/70
f 45/139/22 48/178/21 64/140/41
f 40/141/27 49/119/26 79/85/44
f 56/121/34 72/120/64 37/179/71
f 46/116/20 81/115/62 65/144/72
f 1/28/1 34/27/12 87/146/74
f 25/148/38 10/122/8 95/89/48
f 47/149/73 65/166/72 64/82/41
f 53/151/75 52/180/31 76/152/67
f 60/133/40 69/132/68 68/153/76
f 22/95/28 84/94/51 83/154/77
f 27/155/9 57/96/35 91/98/53
f 44/156/66 67/84/43 66/83/42
