# Blender v3.2.2 OBJ File: 'table.blend'
# www.blender.org
mtllib table.mtl
o Plane
v -0.500000 0.709787 0.850000
v 0.500000 0.709787 0.850000
v -0.500000 0.709787 -0.850000
v 0.500000 0.709787 -0.850000
v -0.500000 0.739787 -0.850000
v -0.500000 0.739787 0.850000
v 0.500000 0.739787 0.850000
v 0.500000 0.739787 -0.850000
vt 0.181096 0.755374
vt 0.181096 0.573719
vt 0.362750 0.573719
vt 0.362750 0.755374
vt 0.901745 0.667867
vt 0.720091 0.667867
vt 0.720091 0.486212
vt 0.901745 0.486212
vt 0.024834 0.508380
vt 0.024834 0.690034
vt 0.020088 0.690034
vt 0.020088 0.508380
vt 0.543743 0.489252
vt 0.543743 0.670907
vt 0.538997 0.670907
vt 0.538997 0.489252
vt 0.034325 0.508380
vt 0.034325 0.690034
vt 0.029580 0.690034
vt 0.029580 0.508380
vt 0.029580 0.508380
vt 0.029580 0.690034
vt 0.024834 0.690034
vt 0.024834 0.508380
vn -0.5774 -0.5774 0.5774
vn -0.5774 -0.5774 -0.5774
vn 0.5774 -0.5774 -0.5774
vn 0.5774 -0.5774 0.5774
vn -0.5774 0.5774 0.5774
vn 0.5774 0.5774 0.5774
vn 0.5774 0.5774 -0.5774
vn -0.5774 0.5774 -0.5774
usemtl None
s 1
f 1/1/1 3/2/2 4/3/3 2/4/4
f 6/5/5 7/6/6 8/7/7 5/8/8
f 2/9/4 4/10/3 8/11/7 7/12/6
f 3/13/2 1/14/1 6/15/5 5/16/8
f 4/17/3 3/18/2 5/19/8 8/20/7
f 1/21/1 2/22/4 7/23/6 6/24/5
o Cube_Cube.001
v -0.497953 -0.187549 0.829084
v -0.497953 0.709684 0.829084
v -0.497953 -0.187549 0.246946
v -0.497953 0.709684 0.246946
v 0.300000 -0.187549 0.829084
v 0.300000 0.709684 0.829084
v 0.300000 -0.187549 0.246946
v 0.300000 0.709684 0.246946
v -0.497953 -0.187549 -0.850081
v -0.497953 0.709674 -0.850081
v 0.310040 -0.187549 -0.850081
v 0.310040 0.709674 -0.850081
v -0.497953 -0.187549 -0.816905
v -0.497953 0.709674 -0.816905
v 0.310040 -0.187549 -0.816905
v 0.310040 0.709674 -0.816905
v -0.458177 0.712451 0.246946
v -0.458177 -0.187549 0.246946
v -0.458177 0.712451 -0.850081
v -0.458177 -0.187549 -0.850081
vt 0.181096 0.508380
vt 0.000000 0.508380
vt 0.000000 0.332133
vt 0.181096 0.332133
vt 0.724909 0.486212
vt 0.543844 0.486212
vt 0.543844 0.244626
vt 0.724909 0.244626
vt 0.538997 0.489252
vt 0.538997 0.670348
vt 0.362750 0.670348
vt 0.362750 0.489252
vt 0.362192 0.573719
vt 0.181096 0.573719
vt 0.181096 0.332133
vt 0.362192 0.332133
vt 0.720620 0.000000
vt 0.720620 0.241586
vt 0.544374 0.241586
vt 0.544374 0.000000
vt 0.543844 0.727770
vt 0.720091 0.486212
vt 0.720091 0.727770
vt 0.901745 0.999441
vt 0.901745 0.818346
vt 0.913788 0.818346
vt 0.913788 1.000000
vt 0.747003 0.154079
vt 0.747003 0.398705
vt 0.736959 0.398705
vt 0.736959 0.154079
vt 0.362750 0.244626
vt 0.543844 0.244626
vt 0.543844 0.489252
vt 0.362750 0.489252
vt 0.000002 0.000000
vt 0.181096 0.000000
vt 0.181096 0.010044
vt 0.000002 0.010044
vt 0.000000 0.752976
vt 0.000000 0.508380
vt 0.010044 0.508380
vt 0.010044 0.752976
vt 0.020088 0.508380
vt 0.020088 0.689474
vt 0.010044 0.689474
vt 0.010044 0.508380
vt 0.362750 0.244626
vt 0.362750 0.000000
vt 0.543813 0.000000
vt 0.543999 0.000000
vt 0.543999 0.244626
vt 0.543813 0.244626
vt 0.362750 0.332133
vt 0.181096 0.332133
vt 0.181096 0.000000
vt 0.362750 0.000000
vt 0.724909 0.486212
vt 0.724909 0.154079
vt 0.736959 0.154079
vt 0.736959 0.486212
vt 0.544374 0.012042
vt 0.362750 0.012042
vt 0.901745 0.486212
vt 0.913788 0.486212
vn -0.5774 -0.5774 0.5774
vn -0.5774 0.5774 0.5774
vn -0.7194 0.6944 0.0154
vn -0.7071 -0.7071 0.0000
vn 0.5774 0.5774 -0.5774
vn 0.5774 -0.5774 -0.5774
vn 0.5774 0.5774 0.5774
vn 0.5774 -0.5774 0.5774
vn 0.5586 0.5989 0.5738
vn -0.3361 -0.6598 -0.6720
vn 0.5846 -0.5630 -0.5842
vn -0.8165 -0.4082 0.4082
vn -0.8878 0.4603 0.0003
vn 0.6942 0.7198 0.0005
vn -0.3477 0.6615 -0.6645
vn 0.5704 0.5914 -0.5700
vn 0.5586 0.5989 -0.5737
usemtl None
s 1
f 9/25/9 10/26/10 12/27/11 11/28/12
f 11/29/12 12/30/11 16/31/13 15/32/14
f 15/33/14 16/34/13 14/35/15 13/36/16
f 13/37/16 14/38/15 10/39/10 9/40/9
f 11/41/12 15/42/14 13/43/16 9/44/9
f 16/45/13 12/30/11 10/46/10 14/47/15
f 12/48/11 11/49/12 26/50/16 25/51/17
f 17/52/18 19/53/19 23/54/16 21/55/20
f 22/56/21 21/57/20 23/58/16 24/59/22
f 18/60/23 17/61/18 21/62/20 22/63/21
f 20/64/24 18/65/23 22/66/21 24/67/22
f 19/68/19 20/69/24 24/70/22 23/71/16
f 19/72/19 17/73/18 18/74/23 22/75/21 24/76/22 20/77/24
f 25/78/17 26/79/16 28/80/14 27/81/25
f 18/82/23 12/83/11 25/84/17 27/85/25
f 17/73/18 18/74/23 27/86/25 28/87/14
f 11/49/12 17/88/18 28/89/14 26/50/16
f 11/28/12 12/27/11 22/63/21 21/62/20
